<svg xmlns="http://www.w3.org/2000/svg" viewBox="0 0 512 512" width="512" height="512">
  <defs>
    <linearGradient id="cg" x1="0%" y1="0%" x2="100%" y2="100%">
      <stop offset="0%" style="stop-color:#22d3ee"/>
      <stop offset="100%" style="stop-color:#0891b2"/>
    </linearGradient>
  </defs>
  <rect width="512" height="512" rx="110" fill="#050a0f"/>
  <rect x="80" y="80" width="90" height="90" rx="10" fill="none" stroke="url(#cg)" stroke-width="14"/>
  <rect x="106" y="106" width="38" height="38" rx="4" fill="url(#cg)"/>
  <rect x="342" y="80" width="90" height="90" rx="10" fill="none" stroke="url(#cg)" stroke-width="14"/>
  <rect x="368" y="106" width="38" height="38" rx="4" fill="url(#cg)"/>
  <rect x="80" y="342" width="90" height="90" rx="10" fill="none" stroke="url(#cg)" stroke-width="14"/>
  <rect x="106" y="368" width="38" height="38" rx="4" fill="url(#cg)"/>
  <rect x="220" y="80" width="18" height="18" rx="3" fill="url(#cg)" opacity=".7"/>
  <rect x="248" y="80" width="18" height="18" rx="3" fill="url(#cg)" opacity=".4"/>
  <rect x="220" y="108" width="18" height="18" rx="3" fill="url(#cg)" opacity=".9"/>
  <rect x="248" y="108" width="18" height="18" rx="3" fill="url(#cg)" opacity=".5"/>
  <rect x="342" y="220" width="18" height="18" rx="3" fill="url(#cg)" opacity=".8"/>
  <rect x="370" y="220" width="18" height="18" rx="3" fill="url(#cg)" opacity=".4"/>
  <rect x="342" y="248" width="18" height="18" rx="3" fill="url(#cg)" opacity=".9"/>
  <rect x="370" y="248" width="18" height="18" rx="3" fill="url(#cg)" opacity=".5"/>
  <text x="256" y="430" font-family="Arial Black,Arial,sans-serif" font-size="62" font-weight="900" letter-spacing="2" text-anchor="middle" fill="url(#cg)">CodeQR</text>
  <text x="256" y="468" font-family="Arial,sans-serif" font-size="20" letter-spacing="8" text-anchor="middle" fill="#22d3ee" opacity=".35">EML TECH</text>
</svg>
